<svg xmlns="http://www.w3.org/2000/svg" width="50" height="50"><path d="M9.285 4A4.007 4.007 0 005.43 6.934L2 19.364v.136C2 23.078 4.922 26 8.5 26c2.313 0 4.344-1.227 5.496-3.055A6.496 6.496 0 0019.5 26a6.496 6.496 0 005.504-3.055C26.156 24.773 28.187 26 30.5 26c2.313 0 4.348-1.227 5.5-3.059C37.152 24.773 39.188 26 41.5 26c3.578 0 6.5-2.922 6.5-6.5v-.137l-3.43-12.43A4.007 4.007 0 0040.715 4zm0 2h5.567l-1.657 12H4.45L7.355 7.469A1.995 1.995 0 019.285 6zM26 6h7.129l1.656 12H26zM15 18h9v1.5c0 .168.012.336.027.5H15zm21.8 0h8.747l.437 1.582c-.004.14-.035.277-.05.418H37.05c-.02-.168-.051-.328-.051-.5v-.066zM4.067 20h8.883c-.25 2.258-2.12 4-4.449 4-2.324 0-4.188-1.746-4.434-4zm22.032 0h8.8c-.253 2.246-2.078 4-4.398 4s-4.145-1.754-4.402-4zM14 25.973A8.464 8.464 0 018.5 28 8.422 8.422 0 014 26.7V43c0 1.652 1.348 3 3 3h36c1.652 0 3-1.348 3-3V26.7a8.422 8.422 0 01-4.5 1.3 8.464 8.464 0 01-5.5-2.027A8.464 8.464 0 0130.5 28a8.464 8.464 0 01-5.5-2.027A8.464 8.464 0 0119.5 28a8.464 8.464 0 01-5.5-2.027zM35.5 29a6.5 6.5 0 015.066 2.434l-1.433 1.433A4.475 4.475 0 0035.5 31c-2.48 0-4.5 2.02-4.5 4.5s2.02 4.5 4.5 4.5c1.953 0 3.602-1.258 4.223-3H36v-2h5.973c.015.164.027.332.027.5 0 3.586-2.914 6.5-6.5 6.5a6.505 6.505 0 01-6.5-6.5c0-3.586 2.914-6.5 6.5-6.5zm0 0" fill="#fff"/></svg>